<svg id="Calque_1" data-name="Calque 1" xmlns="http://www.w3.org/2000/svg" xmlns:xlink="http://www.w3.org/1999/xlink" viewBox="0 0 358 68"><defs><style>.cls-1{fill:none;clip-rule:evenodd;}.cls-2{fill:#fff;}.cls-3{clip-path:url(#clip-path);}</style><clipPath id="clip-path"><path class="cls-1" d="M-28.77,111c-3.4,0-6.12,2.59-7.81,4.3-1.72-1.7-4.49-4.3-7.88-4.3a8.09,8.09,0,0,0-8.41,8.52c0,10.88,14.26,19.86,14.89,20.22a2.12,2.12,0,0,0,2.25,0c.61-.38,14.81-9.39,14.81-20.22C-21,114.23-24,111-28.77,111Z"/></clipPath></defs><polygon class="cls-2" points="179.24 1.38 178.56 28.85 204.67 52.34 218.75 38.12 179.24 1.38"/><polygon class="cls-2" points="192.63 65.7 219.44 65.7 219.44 38.9 192.63 65.7"/><polygon class="cls-2" points="165.37 66.62 138.56 39.82 138.56 66.62 165.37 66.62"/><polygon class="cls-2" points="178.32 1.51 138.99 39.09 152.92 52.91 177.65 28.98 178.32 1.51"/></svg>